<?xml version="1.0" encoding="utf-8"?>
<!-- Generator: Adobe Illustrator 19.2.1, SVG Export Plug-In . SVG Version: 6.00 Build 0)  -->
<svg version="1.1" id="Layer_1" xmlns="http://www.w3.org/2000/svg" xmlns:xlink="http://www.w3.org/1999/xlink" x="0px" y="0px"
	 viewBox="0 0 602 122.8" style="enable-background:new 0 0 602 122.8;" xml:space="preserve">
<style type="text/css">
	.st0{fill:#FFFFFF;}
</style>
<g id="CqB5xr_1_">
	<g>
		<path class="st0" d="M534.7,87.2c-7.3,6.5-14.5,12.9-21.8,19.4c-5.5,4.9-11,9.7-16.4,14.6c-1.3,1.1-2.7,1.7-4.4,1.7
			c-14.8,0-29.6-0.1-44.3,0c-2.3,0-4-0.7-5.6-2.2c-11.7-10.7-23.4-21.4-35.1-32.2c-0.5-0.4-0.9-0.8-1.5-1.3
			c-7.3,6.5-14.5,12.9-21.8,19.4c-5.5,4.9-11,9.7-16.4,14.6c-1.2,1.1-2.6,1.7-4.3,1.7c-6.7,0-13.4,0-20.1,0c-0.3,0-0.6,0-0.9,0
			c-1.9-0.2-2.8-1.7-2-3.5c0.4-0.9,1.2-1.4,1.8-2.1c15.7-14.4,31.3-28.8,47-43.2c0.3-0.3,0.7-0.6,1.1-1c-3.6-3.3-7.1-6.5-10.6-9.7
			c-11.2-10.3-22.4-20.5-33.5-30.8c-0.7-0.6-1.4-1.2-1.8-2.1c-0.7-1.8,0.1-3.2,1.9-3.5c0.5-0.1,1,0,1.6,0c6.9,0,13.8,0.1,20.8,0
			c2.4,0,4.3,0.8,6.1,2.4c11.1,10.2,22.2,20.3,33.3,30.5c0.2,0.2,0.3,0.3,0.6,0.6c2.3-2,4.5-4,6.7-6c9.2-8.2,18.3-16.3,27.5-24.5
			c0.4-0.4,0.9-0.8,1.3-1.2c1.2-1.3,2.7-1.8,4.4-1.8c6.6,0,13.2,0,19.7,0c1.3,0,2.6,0.1,3.1,1.4c0.6,1.5,0,2.7-1.1,3.7
			c-3.4,3.1-6.8,6.2-10.1,9.3c-11.8,10.8-23.6,21.6-35.4,32.4c-0.2,0.2-0.4,0.4-0.7,0.7c15.7,14.3,31.3,28.6,47,42.9
			c16.2-14.8,32.2-29.6,48.3-44.4c-3.6-3.3-7.1-6.5-10.6-9.7c-11.2-10.3-22.4-20.5-33.5-30.8c-0.7-0.6-1.4-1.2-1.8-2.1
			c-0.7-1.8,0.1-3.2,1.9-3.4c0.5-0.1,1,0,1.6,0c6.9,0,13.8,0.1,20.8,0c2.4,0,4.3,0.8,6.1,2.4c11.1,10.2,22.2,20.3,33.3,30.5
			c0.2,0.2,0.3,0.3,0.6,0.6c2.3-2.1,4.7-4.1,7-6.2c9.1-8.1,18.1-16.2,27.2-24.3c0.6-0.5,1.2-1.1,1.8-1.7c1-1,2.3-1.3,3.7-1.3
			c6.7,0,13.4,0,20.1,0c1.2,0,2.4,0.1,2.9,1.4c0.5,1.3,0.1,2.5-0.9,3.5c-3.5,3.2-6.9,6.4-10.4,9.6c-11.8,10.8-23.6,21.6-35.4,32.4
			c-0.2,0.2-0.4,0.4-0.7,0.7c1.6,1.5,3.2,3,4.9,4.5c14,12.8,28.1,25.6,42.1,38.4c0.8,0.7,1.6,1.5,1.8,2.7c0.3,1.6-0.5,2.6-2.1,2.7
			c-0.4,0-0.8,0-1.2,0c-7.3,0-14.5,0-21.8,0c-2.2,0-3.9-0.8-5.5-2.2c-12-11-24.1-22.1-36.1-33.1C535.1,87.4,535,87.4,534.7,87.2z"/>
		<path class="st0" d="M54.4,122.8c-16.5,0-32.9,0-49.4,0c-0.4,0-0.8,0-1.2,0c-2.3-0.1-3.6-1.2-3.6-3.4c-0.1-5.8-0.1-11.6,0-17.5
			c0-2.1,1.1-3.2,3.2-3.4c0.6-0.1,1.2,0,1.7,0c29.3,0,58.5,0,87.8,0c1.4,0,2.8,0,4.2-0.1c4.2-0.1,7-2.4,7.6-6.5
			c0.7-4.5,0.7-9.1,0-13.6c-0.5-3.5-2.9-5.6-6.4-6.2c-1.3-0.2-2.7-0.3-4-0.3c-21.8,0-43.6,0-65.5,0c-5.4,0-10.6-1-15.5-3.5
			c-7.2-3.8-11-10-12.6-17.8c-0.5-2.6-0.8-5.3-0.7-8c0-5.1-0.1-10.2,0-15.4c0.2-7.7,2.7-14.5,8.5-19.8c3.7-3.4,8.2-5.1,13.1-6.1
			c2.7-0.5,5.5-0.7,8.3-0.7c31,0,62,0,93,0c3.4,0,4.4,1,4.4,4.4c0,5.2,0,10.4,0,15.5c0,3.3-1.1,4.4-4.4,4.4c-28,0-56.1,0-84.1,0
			c-1.2,0-2.4,0-3.7,0.1c-4.8,0.1-7.5,2.2-8.1,6.9c-0.5,4-0.6,8.1,0.2,12.2c0.7,3.8,3.4,5.9,7.2,6.1c1.2,0.1,2.4,0.1,3.7,0.1
			c21.5,0,42.9,0,64.4,0c4.9,0,9.7,0.8,14.3,2.7c7.8,3.5,12.3,9.7,14.1,17.9c0.7,3.1,1,6.2,1,9.3c0,5.1,0.1,10.1,0,15.2
			c-0.1,5.2-1.2,10.1-3.8,14.7c-4,6.9-10.1,10.5-17.7,12c-2.9,0.5-5.7,0.8-8.7,0.8C85.9,122.8,70.1,122.8,54.4,122.8z"/>
		<path class="st0" d="M313.2,66.5c0-3.7,0.1-7.4-1.2-10.9c-1.5-4.1-4.8-5.9-8.8-6.8c-3.6-0.8-7.3-0.8-10.9-0.8
			c-23.2,0-46.4,0-69.6,0c-0.4,0-0.8,0-1.2,0c-2.4,0-3.4-1-3.4-3.4c0-4.2,0-8.4,0-12.6c0-0.6,0-1.3,0-1.9c0.1-2.2,1-3.1,3.2-3.2
			c0.3,0,0.7,0,1,0c25.7,0,51.4,0,77.1,0c6.2,0,12.3,0.6,18.3,2.3c6.1,1.7,11.5,4.7,15.2,10.1c2.8,4.1,4,8.7,4.7,13.5
			c0.5,3.5,0.6,7.1,0.6,10.6c0,15.5,0,30.9,0,46.4c0,1.5-0.1,3-0.3,4.5c-0.8,5.5-3.5,7.9-9.2,8.4c-0.6,0.1-1.3,0-1.9,0
			c-29,0-58.1,0-87.1,0c-3.4,0-6.7-0.5-10-1.3c-7.7-2-12.5-6.7-13.7-14.6c-1.2-7.8-1.2-15.6-0.2-23.4c1.2-9.2,7-13.9,15.6-15.7
			c3.2-0.7,6.5-1,9.9-1c23.3,0,46.5,0,69.8,0C311.7,66.7,312.4,66.8,313.2,66.5z M313.2,82.3c-0.5,0-0.9,0-1.3,0
			c-20.5,0-40.9,0-61.4,0c-1.5,0-2.9,0.1-4.3,0.3c-3.7,0.5-5.7,2.5-6.3,6.1c-0.5,2.9-0.4,5.9,0.1,8.8c0.5,2.8,2.1,4.7,5,5.4
			c1.9,0.5,3.9,0.6,5.9,0.6c18.6,0,37.2,0,55.8,0c1,0,2.1,0,3.1-0.2c1.9-0.4,2.8-1.3,3.2-3.2c0.1-0.6,0.2-1.3,0.2-1.9
			c0-3.8,0.1-7.6,0.1-11.3C313.2,85.4,313.2,83.9,313.2,82.3z"/>
		<path class="st0" d="M153.8,47.7c-0.6-0.2-1.3-0.1-1.9-0.1c-4.8,0-9.5,0-14.3,0c-2.4,0-3.4-0.9-3.4-3.4c0-4.7,0-9.3,0-14
			c0-2.4,1-3.4,3.4-3.4c4.8,0,9.5,0,14.3,0c0.6,0,1.3,0.1,1.9-0.1c0.3-0.6,0.2-1.3,0.2-1.9c0-7,0-14,0-20.9c0-2.8,1.1-3.9,3.9-3.9
			c5.7,0,11.4,0,17.1,0c2.8,0,4,1.2,4,4.1c0,6.9,0,13.8,0,20.8c0,0.6-0.1,1.3,0.1,1.9c0.6,0.2,1.3,0.1,1.9,0.1c9.2,0,18.4,0,27.6,0
			c0.5,0,1.1,0,1.6,0c1.5,0.2,2.4,1.1,2.4,2.7c0,5.1,0,10.1,0,15.2c0,1.7-0.9,2.7-2.7,2.8c-0.5,0-0.9,0-1.4,0c-9.1,0-18.3,0-27.4,0
			c-0.6,0-1.3,0-1.8,0c-0.5,0.5-0.3,1.1-0.3,1.6c0,12.5,0,25,0,37.5c0,2,0,3.9,0.4,5.9c1.2,6.4,4.2,8.5,10.1,9.2
			c4.9,0.6,9.8,0.3,14.6,0.3c2.3,0,4.5,0,6.8,0c1.8,0,2.8,1,2.8,2.8c0,5,0,10,0,15c0,1.8-1,2.7-2.7,2.7c-9.1,0-18.3,0.1-27.4-0.1
			c-5.2-0.1-10.3-1-15.1-3c-7.1-3-11.3-8.4-13-15.9c-1-4.4-1.5-8.8-1.5-13.3c0-13.6,0-27.2,0-40.8C154,49,154.2,48.4,153.8,47.7z"/>
	</g>
</g>
</svg>
